<svg xmlns="http://www.w3.org/2000/svg" width="609.5" height="165.49" viewBox="0 0 609.5 165.49">
  <g id="Group_4460" data-name="Group 4460" transform="translate(-341 -466)">
    <g id="Group_4459" data-name="Group 4459" transform="translate(-219 -19.925)">
      <g id="Group_4457" data-name="Group 4457" transform="translate(560 485.925)">
        <path id="Path_2411" data-name="Path 2411" d="M.834,22.007h30.8V14.295H20.97V-36.744H11.494l-12.927,6.79v8.4L12-28.612h.587V14.295H.834Zm64.884,1.008c11.5,0,19.554-7.125,19.554-17.707a15.736,15.736,0,0,0-9.14-14.355v-.671a14.044,14.044,0,0,0,6.706-12.258c0-9.572-7.63-15.859-17.12-15.859-9.238,0-17.036,6.287-17.036,15.859A14.04,14.04,0,0,0,55.388-9.718v.671A15.678,15.678,0,0,0,46.331,5.308c0,10.581,7.965,17.707,19.386,17.707m0-36.085a8.384,8.384,0,0,1-8.735-8.568,8.289,8.289,0,0,1,8.735-8.568c5.544,0,8.819,3.864,8.819,8.568a8.406,8.406,0,0,1-8.819,8.568m0,28.373C58.662,15.3,54.8,10.431,54.8,5.222c0-6.382,4.786-10.246,10.918-10.246,6.3,0,11,3.864,11,10.246,0,5.208-3.864,10.08-11,10.08m83.019,7.8c9.743,0,19.3-7.042,19.3-18.88V-18.956c0-11.837-9.56-18.879-19.3-18.879s-19.3,7.042-19.3,18.879V4.218c0,11.839,9.56,18.88,19.3,18.88m0-7.964c-6.382,0-10.918-4.786-10.918-11.168V-18.62c0-6.382,4.62-11.252,10.918-11.252S159.655-25,159.655-18.62V3.966c0,6.382-4.535,11.168-10.918,11.168m39.375,6.872h30.8V14.295H208.25V-36.744h-9.476l-12.928,6.79v8.4l13.431-7.054h.588V14.295H188.112Z" transform="translate(1.433 37.835)" fill="#fff"/>
      </g>
      <g id="Group_4458" data-name="Group 4458" transform="translate(663.166 495.369)">
        <path id="Path_2412" data-name="Path 2412" d="M2.036,3.978a5.441,5.441,0,0,0,5.452-5.45A5.424,5.424,0,0,0,2.036-6.84,5.5,5.5,0,0,0-3.5-1.472a5.513,5.513,0,0,0,5.536,5.45m0,31.228a5.409,5.409,0,1,0,0-10.818,5.411,5.411,0,1,0,0,10.818" transform="translate(3.5 6.84)" fill="#fff"/>
      </g>
    </g>
    <g id="Group_4456" data-name="Group 4456" transform="translate(353.875 609.525)">
      <path id="Path_2410" data-name="Path 2410" d="M7.34,21.965C19.793,21.965,27,14.758,27,5.877,27-16.568-2.973-6.576-2.973-20.3c0-4.045,3.015-7.932,10.074-7.932,6.744,0,10.631,3.729,10.631,9.438H25.89c0-12.051-9.9-16.8-18.708-16.8-11.58,0-18.232,7.127-18.232,15.3,0,22.285,29.894,10.944,29.894,26.41,0,5.076-4.6,8.248-11.186,8.248C.122,14.362-4.8,9.842-4.8,3.735h-8.077c0,10.785,8.95,18.229,20.214,18.229M54.2,20.933h6.661V14.045H54.275c-3.647,0-5.153-1.586-5.153-5.313v-22.37H61.333v-6.808H49.122V-32.262H41.756v11.815H33.748v6.808h7.534V8.81c0,8.56,5.147,12.123,12.914,12.123m32.354,1.032c6.029,0,10.154-2.93,11.9-6.414h.634v5.382h7.84v-41.38h-7.84v24.5A10.181,10.181,0,0,1,88.772,14.521a9.357,9.357,0,0,1-9.52-9.752V-20.446H71.411V6.116c0,8.881,5.781,15.849,15.139,15.849m49.954,0a15.6,15.6,0,0,0,13.167-6.731h.556v5.7h7.681V-38.525h-7.84V-14.51h-.634a15.624,15.624,0,0,0-13.406-6.968c-11.423,0-19.421,9.267-19.421,21.717,0,12.616,8.474,21.726,19.9,21.726m.952-7.205c-7.218,0-12.929-5.711-12.929-14.436,0-8.488,5.474-14.516,12.85-14.516,7.059,0,12.929,5.315,12.929,14.516,0,7.852-5,14.436-12.85,14.436m41.786-42.114a5.163,5.163,0,0,0,5.309-5.307,5.128,5.128,0,0,0-5.309-5.15,5.108,5.108,0,0,0-5.229,5.15,5.145,5.145,0,0,0,5.229,5.307m-3.96,48.288h7.841v-41.38H167.75v6.808h7.532Zm40.751,1.032c12.611,0,21.8-9.347,21.8-21.721s-9.108-21.721-21.721-21.721c-12.533,0-21.721,9.269-21.721,21.721s9.11,21.721,21.643,21.721m0-7.364c-7.932,0-13.643-5.949-13.643-14.357,0-8.169,5.631-14.436,13.643-14.436,8.091,0,13.8,6.186,13.8,14.436,0,8.328-5.711,14.357-13.8,14.357m48.054,6.332h8.323L276.852,8.4h25.526l4.44,12.528H315.3L295.482-34.56H284.145Zm15.38-19.892,9.829-27.92h.634l9.831,27.92Zm44.8,19.892h7.84V-13.638h11.657v-6.808H332.11V-26.32c0-3.729,1.507-5.4,5.155-5.4h6.185v-6.808h-6.265c-7.766,0-12.914,3.563-12.914,12.126v5.952h-7.532v6.808h7.532Zm46.059,0h6.661V14.045h-6.582c-3.647,0-5.153-1.586-5.153-5.313v-22.37h12.211v-6.808H365.254V-32.262h-7.366v11.815h-8.008v6.808h7.534V8.81c0,8.56,5.147,12.123,12.914,12.123m35.449,1.032c9.042,0,16.254-4.83,18.788-13L417.2,7.141c-1.429,5.158-6.266,8.014-11.423,8.014-7.7,0-12.613-4.761-12.693-12.855h32.273V-.154c0-12.371-7.366-21.324-19.977-21.324-11.106,0-20.373,8.714-20.373,21.8,0,12.691,8.157,21.643,20.77,21.643m-12.613-25.6A12.053,12.053,0,0,1,405.381-14.59c6.266,0,11.581,3.889,11.979,10.953Zm42.273,24.57h7.84V-.317c0-7.849,3.409-13.321,10.545-13.321h3.965v-7.84h-2.933a12.346,12.346,0,0,0-11.1,7.524H443.2v-6.493h-7.76Zm70.245,1.032c12.453,0,19.66-7.207,19.66-16.088,0-22.445-29.972-12.453-29.972-26.173,0-4.045,3.015-7.932,10.076-7.932,6.742,0,10.63,3.729,10.63,9.438h8.157c0-12.051-9.9-16.8-18.708-16.8-11.58,0-18.231,7.127-18.231,15.3,0,22.285,29.892,10.944,29.892,26.41,0,5.076-4.6,8.248-11.186,8.248-7.535,0-12.453-4.52-12.453-10.627h-8.078c0,10.785,8.951,18.229,20.214,18.229m39.09-49.32a5.163,5.163,0,0,0,5.309-5.307,5.128,5.128,0,0,0-5.309-5.15,5.107,5.107,0,0,0-5.227,5.15,5.143,5.143,0,0,0,5.227,5.307m-3.958,48.288h7.84v-41.38H533.281v6.808h7.534Zm16.887,0h8.958L576.649,5h.793l10.068,15.934h9.116L582.356-.311l13.159-20.136h-8.958L577.441-5.781h-.634l-9.038-14.665h-8.958L571.971-.628Z" fill="#fff"/>
    </g>
  </g>
</svg>
