<?xml version="1.0" encoding="utf-8"?>
<!-- Generator: Adobe Illustrator 23.0.3, SVG Export Plug-In . SVG Version: 6.00 Build 0)  -->
<svg version="1.1" id="Layer_1" xmlns="http://www.w3.org/2000/svg" xmlns:xlink="http://www.w3.org/1999/xlink" x="0px" y="0px"
	 viewBox="0 0 595.3 165.5" style="enable-background:new 0 0 595.3 165.5;" xml:space="preserve">
<style type="text/css">
	.st0{fill:#FFFFFF;}
</style>
<g>
	<path class="st0" d="M557.3,164.5h8.7l9.8-15.6h0.8l9.8,15.6h8.9l-13.9-20.7l12.8-19.7h-8.7l-8.9,14.3h-0.6l-8.8-14.3h-8.7
		l12.9,19.4L557.3,164.5z M540.8,164.5h7.7v-40.4h-15v6.7h7.4V164.5z M544.6,117.3c3,0,5.2-2.2,5.2-5.2c0-2.8-2.2-5-5.2-5
		c-2.9,0-5.1,2.2-5.1,5C539.5,115.1,541.7,117.3,544.6,117.3 M506.5,165.5c12.2,0,19.2-7,19.2-15.7c0-21.9-29.3-12.2-29.3-25.6
		c0-3.9,2.9-7.7,9.8-7.7c6.6,0,10.4,3.6,10.4,9.2h8c0-11.8-9.7-16.4-18.3-16.4c-11.3,0-17.8,7-17.8,14.9c0,21.8,29.2,10.7,29.2,25.8
		c0,5-4.5,8.1-10.9,8.1c-7.4,0-12.2-4.4-12.2-10.4h-7.9C486.7,158.2,495.5,165.5,506.5,165.5 M437.9,164.5h7.7v-20.8
		c0-7.7,3.3-13,10.3-13h3.9v-7.7h-2.9c-5.5,0-9.4,3.9-10.8,7.3h-0.5v-6.3h-7.6V164.5z M396.6,140.5c0.5-6.2,5.7-10.7,11.9-10.7
		c6.1,0,11.3,3.8,11.7,10.7H396.6z M408.9,165.5c8.8,0,15.9-4.7,18.3-12.7L420,151c-1.4,5-6.1,7.8-11.2,7.8
		c-7.5,0-12.3-4.7-12.4-12.6H428v-2.4c0-12.1-7.2-20.8-19.5-20.8c-10.8,0-19.9,8.5-19.9,21.3C388.6,156.8,396.6,165.5,408.9,165.5
		 M374.3,164.5h6.5v-6.7h-6.4c-3.6,0-5-1.5-5-5.2v-21.8h11.9v-6.7h-11.9v-11.5h-7.2v11.5h-7.8v6.7h7.4v21.9
		C361.6,161,366.7,164.5,374.3,164.5 M329.3,164.5h7.7v-33.8h11.4v-6.7h-11.4v-5.7c0-3.6,1.5-5.3,5-5.3h6v-6.6h-6.1
		c-7.6,0-12.6,3.5-12.6,11.8v5.8h-7.4v6.7h7.4V164.5z M285.5,145.1l9.6-27.3h0.6l9.6,27.3H285.5z M270.5,164.5h8.1l4.3-12.2h24.9
		l4.3,12.2h8.3l-19.4-54.2h-11.1L270.5,164.5z M223.6,158.3c-7.7,0-13.3-5.8-13.3-14c0-8,5.5-14.1,13.3-14.1c7.9,0,13.5,6,13.5,14.1
		C237,152.4,231.5,158.3,223.6,158.3 M223.6,165.5c12.3,0,21.3-9.1,21.3-21.2c0-12.1-8.9-21.2-21.2-21.2c-12.2,0-21.2,9.1-21.2,21.2
		C202.4,156.5,211.3,165.5,223.6,165.5 M183.8,164.5h7.7v-40.4h-15v6.7h7.4V164.5z M187.6,117.3c3,0,5.2-2.2,5.2-5.2
		c0-2.8-2.2-5-5.2-5c-2.9,0-5.1,2.2-5.1,5C182.5,115.1,184.7,117.3,187.6,117.3 M146.8,158.5c-7.1,0-12.6-5.6-12.6-14.1
		c0-8.3,5.3-14.2,12.5-14.2c6.9,0,12.6,5.2,12.6,14.2C159.4,152,154.5,158.5,146.8,158.5 M145.9,165.5c7.9,0,11.5-4.8,12.9-6.6h0.5
		v5.6h7.5v-58.1h-7.7v23.5h-0.6c-1.6-2.2-5.3-6.8-13.1-6.8c-11.2,0-19,9.1-19,21.2C126.5,156.6,134.7,165.5,145.9,165.5 M97.1,165.5
		c5.9,0,9.9-2.9,11.6-6.3h0.6v5.3h7.7v-40.4h-7.7V148c0,5.9-4.4,10.2-10.1,10.2c-5.1,0-9.3-3.8-9.3-9.5v-24.6h-7.7V150
		C82.3,158.7,88,165.5,97.1,165.5 M65.5,164.5H72v-6.7h-6.4c-3.6,0-5-1.5-5-5.2v-21.8h11.9v-6.7H60.6v-11.5h-7.2v11.5h-7.8v6.7h7.4
		v21.9C52.9,161,57.9,164.5,65.5,164.5 M19.7,165.5c12.2,0,19.2-7,19.2-15.7c0-21.9-29.3-12.2-29.3-25.6c0-3.9,2.9-7.7,9.8-7.7
		c6.6,0,10.4,3.6,10.4,9.2h8c0-11.8-9.7-16.4-18.3-16.4c-11.3,0-17.8,7-17.8,14.9C1.8,146,31,134.9,31,150c0,5-4.5,8.1-10.9,8.1
		c-7.4,0-12.2-4.4-12.2-10.4H0C0,158.2,8.7,165.5,19.7,165.5"/>
	<path class="st0" d="M183.8,58h29.9v-7.5h-10.3V1.1h-9.2l-12.5,6.6v8.1l13-6.8h0.6v41.6h-11.4V58z M145.6,51.4
		c-6.2,0-10.6-4.6-10.6-10.8V18.6c0-6.2,4.5-10.9,10.6-10.9c6.1,0,10.6,4.7,10.6,10.9v21.9C156.2,46.7,151.8,51.4,145.6,51.4
		 M145.6,59.1c9.4,0,18.7-6.8,18.7-18.3V18.3C164.3,6.8,155,0,145.6,0c-9.4,0-18.7,6.8-18.7,18.3v22.5
		C126.9,52.3,136.2,59.1,145.6,59.1 M65.1,51.5c-6.8,0-10.6-4.7-10.6-9.8c0-6.2,4.6-9.9,10.6-9.9c6.1,0,10.7,3.7,10.7,9.9
		C75.8,46.8,72,51.5,65.1,51.5 M65.1,24c-5.2,0-8.5-3.8-8.5-8.3c0-4.6,3.2-8.3,8.5-8.3c5.4,0,8.6,3.7,8.6,8.3
		C73.7,20.2,70.4,24,65.1,24 M65.1,59c11.2,0,19-6.9,19-17.2c0-7.7-5.1-12.2-8.9-13.9v-0.6c3.1-1.7,6.5-5.9,6.5-11.9
		C81.7,6.1,74.3,0,65.1,0c-9,0-16.5,6.1-16.5,15.4c0,5.9,3.4,10.2,6.5,11.9v0.6c-3.7,1.7-8.8,6.3-8.8,13.9C46.3,52.1,54,59,65.1,59
		 M2.2,58h29.9v-7.5H21.7V1.1h-9.2L0,7.6v8.1l13-6.8h0.6v41.6H2.2V58z"/>
	<path class="st0" d="M105.4,49.9c2.9,0,5.3-2.4,5.3-5.2c0-2.9-2.4-5.3-5.3-5.3c-2.9,0-5.4,2.4-5.4,5.3
		C100,47.6,102.5,49.9,105.4,49.9 M105.4,19.6c2.9,0,5.3-2.4,5.3-5.3c0-2.8-2.4-5.2-5.3-5.2c-2.9,0-5.4,2.4-5.4,5.2
		C100,17.3,102.5,19.6,105.4,19.6"/>
</g>
</svg>
