<?xml version="1.0" encoding="utf-8"?>
<!-- Generator: Adobe Illustrator 23.0.3, SVG Export Plug-In . SVG Version: 6.00 Build 0)  -->
<svg version="1.1" id="Layer_1" xmlns="http://www.w3.org/2000/svg" xmlns:xlink="http://www.w3.org/1999/xlink" x="0px" y="0px"
	 viewBox="0 0 213.6 59.1" style="enable-background:new 0 0 213.6 59.1;" xml:space="preserve">
<style type="text/css">
	.st0{fill:#FFFFFF;}
</style>
<g>
	<path class="st0" d="M183.8,58h29.9v-7.5h-10.3V1.1h-9.2l-12.5,6.6v8.1l13-6.8h0.6v41.6h-11.4V58z M145.6,51.4
		c-6.2,0-10.6-4.6-10.6-10.8V18.6c0-6.2,4.5-10.9,10.6-10.9c6.1,0,10.6,4.7,10.6,10.9v21.9C156.2,46.7,151.8,51.4,145.6,51.4
		 M145.6,59.1c9.4,0,18.7-6.8,18.7-18.3V18.3C164.3,6.8,155,0,145.6,0c-9.4,0-18.7,6.8-18.7,18.3v22.5
		C126.9,52.3,136.2,59.1,145.6,59.1 M65.1,51.5c-6.8,0-10.6-4.7-10.6-9.8c0-6.2,4.6-9.9,10.6-9.9c6.1,0,10.7,3.7,10.7,9.9
		C75.8,46.8,72,51.5,65.1,51.5 M65.1,24c-5.2,0-8.5-3.8-8.5-8.3c0-4.6,3.2-8.3,8.5-8.3c5.4,0,8.6,3.7,8.6,8.3
		C73.7,20.2,70.4,24,65.1,24 M65.1,59c11.2,0,19-6.9,19-17.2c0-7.7-5.1-12.2-8.9-13.9v-0.6c3.1-1.7,6.5-5.9,6.5-11.9
		C81.7,6.1,74.3,0,65.1,0c-9,0-16.5,6.1-16.5,15.4c0,5.9,3.4,10.2,6.5,11.9v0.6c-3.7,1.7-8.8,6.3-8.8,13.9C46.3,52.1,54,59,65.1,59
		 M2.2,58h29.9v-7.5H21.7V1.1h-9.2L0,7.6v8.1l13-6.8h0.6v41.6H2.2V58z"/>
	<path class="st0" d="M105.4,49.9c2.9,0,5.3-2.4,5.3-5.2c0-2.9-2.4-5.3-5.3-5.3c-2.9,0-5.4,2.4-5.4,5.3
		C100,47.6,102.5,49.9,105.4,49.9 M105.4,19.6c2.9,0,5.3-2.4,5.3-5.3c0-2.8-2.4-5.2-5.3-5.2c-2.9,0-5.4,2.4-5.4,5.2
		C100,17.3,102.5,19.6,105.4,19.6"/>
</g>
</svg>
